<svg width="22" height="16" fill="none" xmlns="http://www.w3.org/2000/svg"><mask id="mask0_2_73" style="mask-type:alpha" maskUnits="userSpaceOnUse" x="0" y="0" width="22" height="16"><path fill-rule="evenodd" clip-rule="evenodd" d="M11 .5C6 .5 1.73 3.61 0 8c1.73 4.39 6 7.5 11 7.5s9.27-3.11 11-7.5C20.27 3.61 16 .5 11 .5zM11 13c-2.76 0-5-2.24-5-5s2.24-5 5-5 5 2.24 5 5-2.24 5-5 5zm0-8C9.34 5 8 6.34 8 8s1.34 3 3 3 3-1.34 3-3-1.34-3-3-3z" fill="#fff"/></mask><g mask="url(#mask0_2_73)"><path fill="#fff" d="M-2-5h26v26H-2z"/></g></svg>