<svg width="28" height="28" fill="none" xmlns="http://www.w3.org/2000/svg"><mask id="mask0_5_149" style="mask-type:alpha" maskUnits="userSpaceOnUse" x="6" y="6" width="16" height="16"><path fill-rule="evenodd" clip-rule="evenodd" d="M21.074 9.107a3.649 3.649 0 00-.86-1.321 3.649 3.649 0 00-1.32-.86c-.474-.185-1.022-.312-1.813-.346l-.013-.001c-.786-.034-1.048-.046-3.068-.046-2.031 0-2.285.006-3.081.047-.797.034-1.339.161-1.812.346a3.65 3.65 0 00-1.322.86 3.65 3.65 0 00-.86 1.321c-.184.473-.31 1.021-.346 1.812v.013c-.034.786-.046 1.048-.046 3.068 0 2.031.006 2.285.046 3.081.035.797.162 1.34.347 1.812.19.49.444.906.86 1.322.415.415.83.669 1.32.86.474.184 1.022.311 1.813.346h.013c.786.034 1.048.046 3.068.046 2.031 0 2.285-.006 3.081-.046.797-.035 1.339-.162 1.812-.347.49-.19.906-.444 1.322-.86.415-.415.669-.83.86-1.32.184-.474.31-1.022.346-1.813v-.013c.034-.786.046-1.048.046-3.068 0-2.031-.006-2.285-.046-3.081-.035-.796-.162-1.339-.347-1.812zm-1.516 7.65c-.032.665-.143 1.03-.238 1.266a2.114 2.114 0 01-.511.786 2.136 2.136 0 01-.786.512c-.242.095-.6.205-1.265.237l-.034.001c-.696.03-.929.041-2.724.041-1.825 0-2.04-.005-2.758-.042-.664-.032-1.028-.142-1.265-.237a2.113 2.113 0 01-.786-.512 2.137 2.137 0 01-.512-.786c-.094-.242-.205-.6-.237-1.265l-.001-.029c-.03-.7-.041-.934-.041-2.729 0-1.82.005-2.04.042-2.758.032-.664.143-1.028.237-1.265.122-.317.275-.549.512-.786s.464-.385.786-.511c.242-.095.6-.206 1.265-.238h.029c.7-.032.934-.042 2.729-.042 1.82 0 2.04.005 2.758.042.664.032 1.028.143 1.265.238.317.12.549.274.786.511s.385.464.511.786c.095.242.206.6.238 1.265l.001.029c.03.7.041.934.041 2.73 0 1.801-.01 2.035-.041 2.737l-.001.02zm-.891-6.49a.933.933 0 11-1.867 0 .933.933 0 011.867 0zm-4.667 0A3.735 3.735 0 0010.267 14 3.735 3.735 0 0014 17.733 3.735 3.735 0 0017.733 14 3.735 3.735 0 0014 10.267zM12.133 14a1.867 1.867 0 103.735 0 1.867 1.867 0 00-3.735 0z" fill="#fff"/></mask><g mask="url(#mask0_5_149)"><path fill="#737373" d="M1.867 1.867h24.267v24.267H1.867z"/></g></svg>