<svg width="28" height="28" fill="none" xmlns="http://www.w3.org/2000/svg"><mask id="mask0_5_143" style="mask-type:alpha" maskUnits="userSpaceOnUse" x="5" y="7" width="18" height="15"><path fill-rule="evenodd" clip-rule="evenodd" d="M22.4 9.123a6.71 6.71 0 01-1.98.557 3.533 3.533 0 001.516-1.955 6.8 6.8 0 01-2.188.857 3.406 3.406 0 00-2.517-1.115c-1.904 0-3.446 1.582-3.446 3.534 0 .276.03.547.088.805-2.864-.147-5.404-1.554-7.104-3.693a3.592 3.592 0 00-.466 1.777c0 1.227.608 2.308 1.532 2.942a3.37 3.37 0 01-1.56-.442v.044c0 1.713 1.187 3.142 2.764 3.466a3.39 3.39 0 01-1.556.061c.438 1.404 1.712 2.426 3.22 2.455A6.806 6.806 0 015.6 19.88a9.589 9.589 0 005.283 1.587c6.34 0 9.807-5.386 9.807-10.056 0-.153-.004-.306-.01-.458a7.094 7.094 0 001.72-1.83z" fill="#fff"/></mask><g mask="url(#mask0_5_143)"><path fill="#737373" d="M1.867 1.867h24.267v24.267H1.867z"/></g></svg>